<svg width="1199" height="956" viewBox="0 0 1199 956" fill="none" xmlns="http://www.w3.org/2000/svg">
<g clip-path="url(#clip0_463_2763)">
<path d="M1199 0H0V956H1199V0Z" fill="#323232"/>
<mask id="mask0_463_2763" style="mask-type:luminance" maskUnits="userSpaceOnUse" x="746" y="641" width="280" height="289">
<path d="M900.652 641.887L1025.21 749.869L870.591 929.106L746.031 821.125L900.652 641.887Z" fill="white"/>
</mask>
<g mask="url(#mask0_463_2763)">
<path d="M994.776 727.932C994.674 725.221 993.487 722.69 991.515 720.98L907.98 648.564C903.85 644.984 897.378 645.683 893.546 650.124L753.185 812.832C749.357 817.269 749.598 823.794 753.728 827.374L863.294 922.357C867.424 925.937 873.903 925.239 877.731 920.802L993.958 786.07C995.786 783.951 996.775 781.185 996.673 778.475L994.776 727.932ZM986.632 736.6L987.947 771.624L971.209 757.113C970.494 756.493 970.448 755.362 971.114 754.589L986.632 736.6ZM869.034 915.704L759.468 820.72C758.754 820.101 758.712 818.971 759.377 818.2L899.738 655.492C900.4 654.724 901.525 654.599 902.239 655.218L984.498 726.529L964.922 749.222C961.093 753.66 961.335 760.185 965.468 763.768L986.584 782.073L871.539 915.434C870.874 916.205 869.749 916.324 869.034 915.704Z" fill="black"/>
</g>
<path d="M926.052 814.638L850.975 749.631C849.267 748.152 846.594 748.443 845.007 750.28C843.42 752.117 843.519 754.807 845.227 756.286L920.304 821.293C922.011 822.771 924.684 822.48 926.271 820.643C927.857 818.806 927.758 816.116 926.052 814.638Z" fill="black"/>
<path d="M893.026 700.943L930.565 733.446C932.273 734.925 934.947 734.633 936.534 732.796C938.119 730.96 938.021 728.269 936.314 726.79L898.775 694.286C897.067 692.807 894.393 693.099 892.807 694.935C891.221 696.772 891.318 699.464 893.026 700.943Z" fill="black"/>
<path d="M878.249 869.986L803.172 804.979C801.464 803.5 798.793 803.788 797.204 805.628C795.614 807.469 795.715 810.156 797.423 811.635L872.5 876.642C874.207 878.12 876.877 877.833 878.468 875.991C880.057 874.151 879.956 871.464 878.249 869.986Z" fill="black"/>
<path d="M902.152 842.311L827.074 777.304C825.366 775.825 822.696 776.112 821.107 777.952C819.518 779.792 819.619 782.48 821.327 783.959L896.404 848.966C898.111 850.443 900.781 850.156 902.37 848.316C903.959 846.476 903.858 843.788 902.152 842.311Z" fill="black"/>
<path d="M949.952 786.966L874.875 721.959C873.167 720.48 870.492 720.772 868.907 722.607C867.32 724.444 867.418 727.136 869.126 728.615L944.203 793.622C945.91 795.1 948.584 794.808 950.171 792.971C951.756 791.135 951.659 788.444 949.952 786.966Z" fill="black"/>
<mask id="mask1_463_2763" style="mask-type:luminance" maskUnits="userSpaceOnUse" x="84" y="192" width="224" height="216">
<path d="M308 192H84V408H308V192Z" fill="white"/>
</mask>
<g mask="url(#mask1_463_2763)">
<path d="M196 280.254C184.931 280.254 175.961 288.907 175.961 299.585C175.961 310.265 184.931 318.918 196 318.918C207.069 318.918 216.039 310.265 216.039 299.585C216.039 288.907 207.069 280.254 196 280.254Z" fill="black"/>
<path d="M126.131 333.82C128.1 334.45 130.069 335.089 132.085 335.639C131.431 338.169 130.862 340.663 130.331 343.238C125.739 366.667 129.323 385.233 140.784 391.608C152.6 398.19 172.461 391.437 191.8 375.103C193.331 373.798 194.861 372.447 196.392 371.006C198.315 372.825 200.331 374.554 202.338 376.238C221.06 391.77 239.569 398.055 250.992 391.689C262.808 385.107 266.654 365.145 261.669 340.833C261.277 338.979 260.839 337.079 260.354 335.134C261.754 334.756 263.107 334.332 264.469 333.909C289.716 325.851 308 312.804 308 299.424C308 286.638 290.761 274.23 266.961 266.333V266.325C264.6 265.568 262.239 264.848 259.877 264.173C260.269 262.615 260.624 261.048 260.969 259.491C266.354 234.333 262.808 214.128 250.861 207.455C239.354 201.08 220.584 207.707 201.6 223.664C199.715 225.221 197.885 226.869 196.131 228.517C194.946 227.418 193.723 226.319 192.5 225.266C172.592 208.211 152.646 201.035 140.7 207.753C129.239 214.173 125.823 233.207 130.639 256.996C131.124 259.365 131.646 261.678 132.254 264.047C129.454 264.803 126.7 265.649 124.115 266.541C100.754 274.347 84 286.674 84 299.424C84 312.597 101.846 325.797 126.131 333.82ZM185.631 368.206C178.416 374.581 170.054 379.642 160.954 383.108C156.1 385.341 150.5 385.557 145.507 383.657C138.554 379.776 135.66 364.875 139.598 344.823C140.084 342.464 140.607 340.096 141.213 337.772C151.013 339.798 160.897 341.194 170.921 341.905C176.698 349.802 183.036 357.356 189.821 364.443C188.421 365.748 187.021 367.018 185.621 368.197L185.631 368.206ZM241.192 288.952C239.139 285.233 237.039 281.524 234.846 277.895C232.698 274.312 230.469 270.764 228.154 267.262C235.2 268.107 241.939 269.242 248.239 270.638C246.223 276.887 243.861 282.965 241.192 288.952ZM241.276 309.968C244.076 316.091 246.531 322.294 248.669 328.669C241.882 330.146 235.023 331.29 228.107 332.046C230.469 328.498 232.698 324.87 234.892 321.241C237.123 317.522 239.223 313.768 241.276 309.968ZM236.218 299.469C233.287 305.295 230.131 311.03 226.772 316.684C223.449 322.294 219.903 327.742 216.188 333.144C209.674 333.613 202.888 333.82 196.018 333.82C189.149 333.82 182.504 333.613 176.074 333.225C172.265 327.868 168.682 322.375 165.312 316.766C161.943 311.156 158.835 305.456 155.904 299.631H155.885C158.769 293.805 161.924 288.105 165.246 282.496C168.569 276.887 172.162 271.439 175.924 266.081C182.485 265.614 189.177 265.362 196.01 265.362C202.841 265.362 209.571 265.614 216.095 266.081C219.81 271.403 223.356 276.842 226.725 282.415C230.095 287.989 233.24 293.689 236.218 299.469ZM157.098 277.976C154.952 281.559 152.852 285.224 150.882 288.943C148.129 282.658 145.805 276.499 143.882 270.548C150.182 269.197 156.875 268.098 163.828 267.252C161.523 270.754 159.246 274.339 157.098 277.976ZM150.892 310.301C152.908 314.02 154.961 317.693 157.146 321.322C159.376 324.996 161.654 328.669 164.061 332.253C157.239 331.532 150.454 330.479 143.761 329.083C145.684 323.005 148.092 316.721 150.892 310.301ZM196.354 357.942C191.893 353.304 187.431 348.163 183.102 342.625C187.302 342.797 191.631 342.877 196.01 342.877C200.518 342.877 204.931 342.797 209.31 342.58C205.287 347.938 200.956 353.052 196.354 357.942ZM253.54 370.62C253.139 375.76 250.516 380.569 246.316 383.82C239.362 387.7 224.531 382.64 208.516 369.385C206.677 367.864 204.839 366.217 202.962 364.532C209.654 357.401 215.824 349.847 221.424 341.915C231.439 341.113 241.416 339.637 251.262 337.484C251.702 339.213 252.093 340.942 252.448 342.634C254.595 351.755 254.94 361.246 253.54 370.62ZM257.339 272.871C259.616 273.501 261.8 274.176 263.9 274.851C284.284 281.604 298.592 291.653 298.592 299.333C298.592 307.608 283.323 318.288 261.492 325.248C260.269 325.626 259.046 326.004 257.777 326.346C254.716 317.144 250.954 308.157 246.624 299.415C250.824 290.807 254.371 281.938 257.339 272.871ZM207.76 230.497C224.046 216.829 239.223 211.472 246.139 215.307C253.531 219.404 256.377 235.945 251.739 257.68C251.431 259.113 251.123 260.508 250.731 261.903C241.015 259.797 231.177 258.275 221.284 257.428C215.6 249.568 209.384 242.058 202.646 235.008C204.354 233.451 206.015 231.974 207.76 230.497ZM196.093 241.473C200.685 246.281 205.016 251.342 209.039 256.573C200.377 256.195 191.669 256.195 183.008 256.573C187.292 251.134 191.716 246.074 196.093 241.473ZM145.339 215.604C152.693 211.472 169.008 217.378 186.2 232.064C187.292 232.992 188.384 234.008 189.523 235.018C182.738 242.058 176.484 249.568 170.754 257.42C160.869 258.266 151.069 259.743 141.354 261.814C140.784 259.662 140.308 257.465 139.823 255.268C135.707 234.838 138.423 219.441 145.339 215.604ZM127.185 275.103C129.677 274.257 132.216 273.501 134.754 272.78C137.731 281.938 141.316 290.933 145.469 299.622C141.269 308.446 137.639 317.558 134.624 326.842L134.615 326.85C132.776 326.346 130.984 325.797 129.192 325.202C119.877 322.375 109.284 317.9 101.631 312.039C97.2157 309.085 94.2386 304.529 93.4079 299.415C93.4079 291.69 107.231 281.812 127.185 275.103Z" fill="black"/>
</g>
<mask id="mask2_463_2763" style="mask-type:luminance" maskUnits="userSpaceOnUse" x="225" y="723" width="142" height="142">
<path d="M366.962 743.559L245.559 723.59L225.59 844.993L346.993 864.962L366.962 743.559Z" fill="white"/>
</mask>
<g mask="url(#mask2_463_2763)">
<mask id="mask3_463_2763" style="mask-type:luminance" maskUnits="userSpaceOnUse" x="273" y="752" width="47" height="84">
<path d="M285.992 752.918L319.265 758.391L306.563 835.617L273.289 830.144L285.992 752.918Z" fill="white"/>
</mask>
<g mask="url(#mask3_463_2763)">
<path d="M315.363 758.037C314.831 757.773 314.245 757.566 313.663 757.47C311.292 757.08 308.929 758.262 307.806 760.379L274.849 822.942C274.562 823.471 274.381 824.038 274.282 824.642C273.782 827.68 275.874 830.569 278.892 831.065C281.262 831.455 283.626 830.273 284.749 828.156L317.706 765.592C317.992 765.065 318.177 764.475 318.273 763.893C318.663 761.523 317.48 759.16 315.363 758.037Z" fill="black"/>
</g>
<path d="M271.346 763.499C270.481 762.295 269.176 761.483 267.71 761.242C266.245 761.001 264.748 761.352 263.544 762.216L237.846 780.651C236.641 781.515 235.829 782.82 235.588 784.285C235.347 785.75 235.698 787.246 236.563 788.451L255.002 814.145C255.873 815.307 257.161 816.094 258.583 816.328C261.6 816.824 264.511 814.736 265.008 811.719C265.241 810.297 264.908 808.826 264.087 807.628L248.906 786.476L270.063 771.3C271.267 770.436 272.08 769.131 272.321 767.666C272.562 766.2 272.21 764.704 271.346 763.499Z" fill="black"/>
<path d="M355.992 800.084L337.553 774.39C336.681 773.228 335.394 772.441 333.971 772.207C330.954 771.711 328.043 773.8 327.547 776.816C327.313 778.238 327.646 779.71 328.468 780.906L343.648 802.06L322.492 817.235C321.244 818.093 320.404 819.437 320.159 820.924C319.659 823.962 321.73 826.848 324.768 827.347C326.256 827.592 327.799 827.226 329.011 826.319L354.709 807.884C355.914 807.02 356.726 805.715 356.967 804.25C357.208 802.785 356.856 801.289 355.992 800.084Z" fill="black"/>
</g>
<path d="M962.027 130.63C958.776 126.332 953.807 115.931 947.4 121.139C947.161 121.375 946.949 121.631 946.761 121.908C946.572 122.187 946.413 122.479 946.282 122.789C946.152 123.097 946.053 123.416 945.985 123.744C945.917 124.072 945.883 124.404 945.881 124.74C945.878 125.075 945.908 125.407 945.971 125.737C946.034 126.066 946.129 126.386 946.256 126.696C946.381 127.007 946.537 127.302 946.721 127.583C946.905 127.863 947.115 128.123 947.35 128.362C949.11 130.162 950.705 132.096 952.137 134.166C953.568 136.236 954.816 138.411 955.88 140.692C956.944 142.974 957.808 145.328 958.474 147.755C959.141 150.182 959.598 152.647 959.847 155.152C959.894 155.625 960.005 156.081 960.179 156.524C960.353 156.966 960.584 157.375 960.872 157.751C961.16 158.13 961.494 158.46 961.874 158.743C962.256 159.027 962.668 159.254 963.111 159.421C977.289 162.157 965.637 136.142 962.027 130.63Z" fill="black"/>
<path d="M993.416 260.204L990.621 253.952C991.316 253.047 991.944 252.1 992.505 251.107C993.066 250.116 993.556 249.089 993.973 248.027C994.39 246.967 994.73 245.882 994.994 244.773C995.258 243.663 995.443 242.542 995.548 241.406C995.654 240.272 995.681 239.136 995.627 237.996C995.572 236.858 995.439 235.728 995.225 234.608C995.012 233.489 994.721 232.389 994.353 231.311C993.985 230.231 993.543 229.184 993.028 228.168L986.89 214.531C986.382 213.415 985.93 212.277 985.533 211.116C985.137 209.955 984.799 208.778 984.517 207.584C984.236 206.39 984.014 205.187 983.851 203.97C983.687 202.755 983.583 201.534 983.54 200.309C983.496 199.083 983.512 197.857 983.588 196.635C983.664 195.41 983.801 194.193 983.995 192.981C984.191 191.771 984.444 190.572 984.757 189.387C985.07 188.2 985.44 187.032 985.866 185.882C986.413 184.434 986.913 182.97 987.369 181.491C987.823 180.012 988.233 178.52 988.596 177.016C988.958 175.51 989.275 173.996 989.544 172.472C989.813 170.948 990.035 169.418 990.209 167.879C990.384 166.342 990.509 164.8 990.588 163.254C990.667 161.708 990.698 160.162 990.682 158.614C990.664 157.067 990.599 155.52 990.486 153.977C990.374 152.434 990.213 150.896 990.005 149.362C989.797 147.829 989.542 146.302 989.238 144.784C988.936 143.268 988.587 141.76 988.191 140.263C987.795 138.767 987.352 137.286 986.865 135.816C986.377 134.349 985.844 132.896 985.266 131.46C984.689 130.025 984.067 128.608 983.402 127.211C982.736 125.814 982.028 124.439 981.277 123.086C980.527 121.731 979.734 120.403 978.901 119.099C978.068 117.794 977.197 116.517 976.284 115.267C975.371 114.018 974.421 112.797 973.433 111.606C972.446 110.413 971.422 109.255 970.363 108.127C969.303 106.999 968.209 105.905 967.082 104.845C965.954 103.786 964.796 102.761 963.605 101.773C962.414 100.785 961.193 99.8341 959.944 98.9221C958.694 98.0101 957.417 97.1361 956.114 96.3041C954.81 95.4691 953.481 94.6771 952.128 93.9261C950.775 93.1751 949.4 92.4661 948.004 91.8011C946.607 91.1341 945.19 90.5121 943.755 89.9351C942.321 89.3561 940.868 88.8231 939.399 88.3351C937.93 87.8471 936.449 87.4051 934.953 87.0071C933.457 86.6111 931.951 86.2621 930.434 85.9581C928.916 85.6561 927.39 85.4001 925.856 85.1911C924.324 84.9841 922.785 84.8221 921.241 84.7081C919.699 84.5971 918.153 84.5301 916.606 84.5141C915.059 84.4961 913.511 84.5271 911.966 84.6051C910.863 83.5231 909.727 82.4771 908.561 81.4661C907.392 80.4561 906.195 79.4811 904.966 78.5441C903.738 77.6071 902.482 76.7091 901.199 75.8481C899.917 74.9881 898.608 74.1691 897.274 73.3901C895.941 72.6111 894.585 71.8731 893.205 71.1771C891.826 70.4821 890.427 69.8291 889.007 69.2211C887.588 68.6121 886.152 68.0461 884.697 67.5251C883.242 67.0051 881.774 66.5291 880.291 66.0991C878.806 65.6691 877.312 65.2851 875.805 64.9471C874.297 64.6101 872.781 64.3181 871.255 64.0741C869.73 63.8301 868.199 63.6321 866.662 63.4821C865.124 63.3321 863.583 63.2281 862.041 63.1741C860.496 63.1191 858.953 63.1121 857.408 63.1511C855.864 63.1921 854.323 63.2791 852.784 63.4151C851.245 63.5491 849.712 63.7331 848.185 63.9611C846.656 64.1911 845.137 64.4681 843.627 64.7901C842.117 65.1131 840.618 65.4831 839.13 65.8991C837.643 66.3151 836.168 66.7761 834.71 67.2821C833.25 67.7891 831.808 68.3401 830.383 68.9351C828.956 69.5311 827.551 70.1701 826.165 70.8511C824.779 71.5341 823.416 72.2571 822.074 73.0241C820.733 73.7901 819.415 74.5971 818.123 75.4441C816.833 76.2921 815.568 77.1771 814.331 78.1031C813.094 79.0281 811.887 79.9911 810.709 80.9901C809.53 81.9901 808.385 83.0251 807.271 84.0951C806.157 85.1651 805.077 86.2701 804.031 87.4061C802.984 88.5431 801.974 89.7111 801 90.9101C800.026 92.1091 799.091 93.3371 798.192 94.5951C797.294 95.8511 796.435 97.1351 795.616 98.4441C794.796 99.7541 794.018 101.088 793.281 102.446C792.545 103.803 791.851 105.182 791.198 106.583C790.545 107.983 789.938 109.403 789.373 110.841C788.925 111.982 788.423 113.098 787.865 114.188C787.309 115.281 786.7 116.342 786.04 117.373C785.379 118.405 784.67 119.402 783.911 120.364C783.152 121.327 782.349 122.25 781.501 123.134C780.652 124.018 779.763 124.858 778.832 125.655C777.901 126.451 776.934 127.201 775.93 127.903C774.926 128.605 773.89 129.257 772.822 129.858C771.754 130.458 770.66 131.006 769.538 131.5L755.836 137.59C754.773 138.004 753.745 138.49 752.751 139.048C751.756 139.607 750.805 140.232 749.899 140.924C748.993 141.617 748.14 142.369 747.338 143.182C746.538 143.995 745.798 144.86 745.12 145.777C744.441 146.694 743.831 147.654 743.288 148.657C742.744 149.661 742.274 150.696 741.878 151.766C741.48 152.835 741.159 153.927 740.916 155.042C740.673 156.156 740.51 157.283 740.424 158.42C715.184 167.012 727.377 186.934 735.255 204.241C739.478 213.629 749.258 220.039 758.751 216.107L764.818 213.392C765.617 214.097 766.463 214.741 767.355 215.325C768.247 215.909 769.175 216.426 770.142 216.876C771.108 217.325 772.102 217.705 773.122 218.011C774.142 218.318 775.18 218.551 776.234 218.708C777.288 218.866 778.348 218.948 779.415 218.954C780.481 218.959 781.541 218.888 782.597 218.741C783.653 218.594 784.692 218.373 785.715 218.075C786.74 217.779 787.737 217.411 788.708 216.97L805.179 209.642C806.263 209.134 807.369 208.681 808.496 208.282C809.623 207.882 810.768 207.538 811.93 207.252C813.09 206.964 814.263 206.733 815.447 206.559C816.63 206.387 817.82 206.271 819.014 206.214C820.21 206.156 821.404 206.157 822.598 206.216C823.793 206.276 824.982 206.392 826.166 206.568C827.348 206.742 828.521 206.975 829.681 207.264C830.842 207.555 831.986 207.9 833.113 208.301C837.882 210.074 842.782 211.346 847.812 212.117C852.842 212.888 857.898 213.141 862.981 212.876C866.59 216.459 870.524 219.638 874.783 222.415C879.042 225.193 883.539 227.51 888.272 229.367C889.594 229.951 890.882 230.606 892.134 231.327C893.386 232.049 894.597 232.835 895.765 233.686C896.934 234.536 898.053 235.447 899.126 236.417C900.196 237.386 901.214 238.41 902.177 239.488C903.139 240.567 904.042 241.693 904.886 242.867C905.728 244.041 906.507 245.256 907.221 246.513C907.934 247.77 908.579 249.062 909.156 250.387C909.732 251.713 910.236 253.065 910.669 254.445L915.6 265.406C916.03 266.384 916.527 267.325 917.091 268.23C917.657 269.136 918.284 269.996 918.972 270.811C919.662 271.627 920.405 272.388 921.204 273.096C922.002 273.805 922.848 274.452 923.739 275.039C924.631 275.624 925.561 276.145 926.527 276.598C927.493 277.05 928.486 277.431 929.509 277.741C930.529 278.05 931.568 278.286 932.624 278.446C933.678 278.607 934.74 278.69 935.807 278.698C938.014 284.151 940.703 290.523 946.964 292.444C948.34 292.928 949.748 293.275 951.191 293.484C952.634 293.692 954.083 293.759 955.539 293.686C956.994 293.611 958.43 293.397 959.844 293.044C961.259 292.691 962.624 292.203 963.944 291.582L981.554 283.704C990.618 279.94 997.54 269.346 993.416 260.204ZM754.584 206.783C751.826 208.024 747.032 205.569 744.573 200.072L736.699 182.461C735.09 178.322 734.241 173.227 738.369 170.525L742.51 168.672L758.725 204.932L754.584 206.783ZM917.898 245.621C917.302 244.174 916.637 242.759 915.899 241.378C915.164 239.997 914.36 238.657 913.49 237.356C912.621 236.054 911.689 234.801 910.694 233.592C909.699 232.384 908.648 231.228 907.537 230.125C906.427 229.021 905.266 227.976 904.052 226.987C902.839 226 901.579 225.076 900.273 224.213C898.968 223.35 897.621 222.555 896.237 221.827C894.852 221.098 893.435 220.44 891.984 219.852C886.387 217.643 881.202 214.707 876.427 211.042C881.07 209.971 885.568 208.467 889.922 206.533C891.056 206.019 892.175 205.478 893.282 204.909C894.389 204.34 895.48 203.743 896.558 203.121C897.634 202.497 898.696 201.849 899.741 201.172C900.786 200.498 901.813 199.796 902.823 199.071C903.834 198.344 904.824 197.592 905.798 196.817C906.771 196.042 907.724 195.243 908.658 194.42C909.591 193.597 910.504 192.752 911.396 191.884C912.287 191.016 913.157 190.127 914.005 189.216C914.852 188.306 915.677 187.374 916.478 186.423C917.28 185.471 918.058 184.5 918.811 183.509C919.565 182.519 920.294 181.511 920.997 180.485C921.7 179.459 922.378 178.416 923.03 177.356C923.681 176.296 924.307 175.221 924.907 174.13C925.505 173.039 926.077 171.935 926.621 170.816C927.165 169.695 927.68 168.564 928.169 167.42C928.657 166.275 929.117 165.12 929.548 163.951C929.979 162.785 930.381 161.607 930.754 160.42C931.125 159.232 931.469 158.037 931.783 156.834C932.095 155.63 932.38 154.418 932.632 153.2C932.886 151.981 933.11 150.758 933.302 149.528C933.495 148.3 933.658 147.066 933.79 145.829C933.921 144.591 934.023 143.352 934.093 142.109C934.164 140.867 934.204 139.624 934.212 138.38C934.222 137.135 934.2 135.891 934.148 134.649C934.094 133.406 934.012 132.164 933.898 130.926C933.784 129.686 933.639 128.451 933.465 127.219C933.289 125.987 933.084 124.76 932.848 123.539C932.611 122.317 932.346 121.101 932.051 119.893C931.755 118.685 931.429 117.485 931.074 116.292C930.717 115.099 930.334 113.916 929.919 112.743C929.505 111.57 929.063 110.407 928.592 109.256C928.12 108.104 927.621 106.965 927.093 105.838C926.949 105.535 926.778 105.248 926.578 104.98C926.378 104.71 926.155 104.462 925.906 104.236C925.657 104.011 925.389 103.813 925.101 103.639C924.813 103.467 924.511 103.324 924.195 103.211C923.88 103.098 923.556 103.018 923.223 102.968C922.891 102.919 922.558 102.904 922.223 102.92C921.887 102.937 921.556 102.986 921.232 103.068C920.907 103.15 920.592 103.262 920.288 103.405C919.985 103.55 919.699 103.722 919.429 103.922C919.161 104.123 918.913 104.347 918.688 104.596C918.463 104.845 918.265 105.113 918.093 105.401C917.92 105.69 917.779 105.992 917.666 106.308C917.553 106.623 917.473 106.948 917.424 107.281C917.375 107.612 917.359 107.946 917.377 108.281C917.393 108.616 917.444 108.946 917.525 109.272C917.608 109.596 917.721 109.911 917.866 110.214C918.553 111.661 919.188 113.13 919.768 114.624C920.347 116.118 920.87 117.63 921.337 119.162C921.804 120.695 922.214 122.242 922.567 123.805C922.918 125.368 923.213 126.942 923.448 128.526C923.684 130.11 923.86 131.702 923.978 133.3C924.095 134.897 924.154 136.497 924.152 138.099C924.151 139.701 924.092 141.301 923.972 142.898C923.852 144.496 923.672 146.087 923.435 147.671C923.197 149.254 922.901 150.829 922.547 152.39C922.193 153.954 921.78 155.501 921.312 157.032C920.843 158.564 920.317 160.076 919.735 161.569C919.155 163.061 918.518 164.53 917.828 165.976C917.138 167.422 916.394 168.841 915.598 170.231C914.802 171.621 913.956 172.98 913.06 174.308C912.164 175.635 911.22 176.928 910.228 178.186C909.234 179.444 908.197 180.663 907.115 181.844C906.032 183.025 904.907 184.164 903.74 185.261C902.573 186.358 901.366 187.411 900.121 188.418C898.875 189.425 897.596 190.386 896.278 191.299C894.961 192.211 893.614 193.074 892.232 193.887C890.853 194.7 889.444 195.459 888.006 196.168C886.569 196.876 885.109 197.53 883.623 198.13C882.137 198.729 880.632 199.273 879.106 199.761C877.58 200.249 876.038 200.68 874.481 201.054C872.923 201.427 871.354 201.742 869.773 201.999C868.192 202.256 866.604 202.454 865.008 202.593C863.412 202.733 861.813 202.813 860.212 202.833C858.61 202.854 857.009 202.816 855.411 202.717C853.812 202.619 852.22 202.462 850.632 202.246C849.046 202.029 847.469 201.755 845.901 201.422C844.335 201.088 842.782 200.697 841.244 200.249C839.708 199.8 838.188 199.296 836.689 198.734C835.217 198.206 833.723 197.753 832.206 197.374C830.688 196.994 829.157 196.691 827.611 196.463C826.064 196.236 824.509 196.087 822.947 196.015C821.385 195.942 819.824 195.947 818.263 196.029C816.701 196.113 815.148 196.273 813.602 196.51C812.057 196.748 810.527 197.061 809.013 197.451C807.499 197.84 806.008 198.304 804.539 198.842C803.071 199.379 801.633 199.988 800.224 200.669L791.746 181.709C791.606 181.41 791.437 181.127 791.241 180.86C791.044 180.593 790.825 180.348 790.581 180.125C790.337 179.901 790.073 179.703 789.792 179.53C789.509 179.357 789.212 179.215 788.902 179.099C788.592 178.984 788.273 178.901 787.947 178.847C787.62 178.794 787.291 178.774 786.96 178.784C786.63 178.796 786.304 178.839 785.982 178.912C785.659 178.987 785.346 179.092 785.045 179.227C784.742 179.362 784.456 179.526 784.186 179.715C783.916 179.907 783.666 180.121 783.437 180.361C783.209 180.601 783.005 180.859 782.827 181.138C782.649 181.417 782.499 181.71 782.378 182.019C782.257 182.326 782.167 182.643 782.106 182.969C782.047 183.294 782.019 183.622 782.023 183.954C782.028 184.284 782.063 184.612 782.131 184.936C782.2 185.259 782.298 185.574 782.427 185.879L790.896 204.821L784.534 207.652C784.168 207.816 783.793 207.961 783.413 208.089C783.033 208.215 782.646 208.323 782.256 208.412C781.864 208.501 781.47 208.571 781.071 208.622C780.674 208.671 780.273 208.703 779.872 208.714C779.471 208.723 779.071 208.716 778.67 208.687C778.27 208.658 777.872 208.61 777.478 208.543C777.082 208.476 776.691 208.388 776.303 208.282C775.916 208.176 775.536 208.053 775.162 207.908C774.786 207.765 774.42 207.603 774.06 207.424C773.701 207.245 773.353 207.048 773.014 206.834C772.674 206.62 772.346 206.39 772.028 206.144C771.711 205.898 771.408 205.636 771.117 205.361C770.825 205.085 770.549 204.795 770.286 204.492C770.023 204.188 769.776 203.872 769.545 203.545C769.313 203.218 769.097 202.88 768.899 202.53C768.7 202.181 768.52 201.825 768.357 201.458L751.595 163.983C751.44 163.567 751.305 163.144 751.194 162.714C751.082 162.285 750.99 161.851 750.923 161.411C750.855 160.973 750.809 160.531 750.786 160.088C750.762 159.644 750.763 159.201 750.785 158.757C750.807 158.314 750.852 157.873 750.919 157.433C750.986 156.994 751.075 156.56 751.186 156.13C751.297 155.7 751.431 155.277 751.585 154.86C751.74 154.443 751.916 154.036 752.111 153.638C752.308 153.239 752.523 152.852 752.759 152.475C752.995 152.099 753.248 151.735 753.522 151.384C753.795 151.035 754.085 150.697 754.391 150.378C754.698 150.056 755.021 149.752 755.359 149.464C755.697 149.175 756.048 148.904 756.414 148.652C756.78 148.401 757.157 148.167 757.547 147.953C757.936 147.739 758.335 147.546 758.743 147.374C759.154 147.2 759.569 147.049 759.994 146.918L764.147 145.072L774.088 167.231C774.23 167.529 774.399 167.811 774.596 168.077C774.793 168.344 775.012 168.588 775.257 168.811C775.5 169.034 775.765 169.231 776.047 169.404C776.329 169.576 776.626 169.719 776.936 169.832C777.247 169.948 777.565 170.031 777.893 170.083C778.218 170.136 778.546 170.156 778.878 170.145C779.208 170.133 779.534 170.09 779.857 170.015C780.178 169.941 780.49 169.835 780.793 169.7C781.094 169.564 781.38 169.4 781.649 169.21C781.92 169.019 782.169 168.803 782.398 168.565C782.626 168.325 782.828 168.066 783.006 167.787C783.184 167.508 783.333 167.214 783.454 166.906C783.575 166.598 783.665 166.281 783.724 165.956C783.783 165.63 783.811 165.303 783.807 164.972C783.802 164.641 783.765 164.314 783.698 163.991C783.63 163.666 783.531 163.352 783.403 163.048L773.478 140.925C774.916 140.299 776.319 139.603 777.689 138.84C779.059 138.075 780.387 137.246 781.675 136.35C782.962 135.455 784.203 134.499 785.397 133.482C786.59 132.464 787.731 131.391 788.818 130.261C789.906 129.132 790.936 127.95 791.908 126.719C792.879 125.488 793.787 124.212 794.633 122.891C795.478 121.571 796.257 120.212 796.97 118.814C797.681 117.417 798.323 115.988 798.894 114.526C799.345 113.36 799.831 112.206 800.348 111.067C800.867 109.927 801.419 108.804 802.001 107.697C802.585 106.59 803.2 105.5 803.846 104.428C804.494 103.357 805.17 102.304 805.879 101.273C806.586 100.24 807.323 99.2291 808.089 98.2401C808.856 97.2501 809.65 96.2841 810.472 95.3391C811.295 94.3951 812.144 93.4771 813.019 92.5821C813.895 91.6881 814.796 90.8201 815.723 89.9791C816.649 89.1371 817.599 88.3221 818.571 87.5351C819.545 86.7481 820.54 85.9911 821.557 85.2601C822.574 84.5321 823.612 83.8321 824.67 83.1641C825.728 82.4941 826.804 81.8571 827.899 81.2501C828.994 80.6441 830.105 80.0701 831.233 79.5281C832.362 78.9861 833.505 78.4771 834.662 78.0021C835.819 77.5261 836.99 77.0841 838.174 76.6761C839.356 76.2691 840.551 75.8951 841.756 75.5571C842.961 75.2191 844.174 74.9151 845.396 74.6471C846.619 74.3781 847.849 74.1461 849.084 73.9501C850.32 73.7521 851.561 73.5921 852.807 73.4671C854.052 73.3431 855.299 73.2541 856.55 73.2011C857.8 73.1491 859.05 73.1341 860.303 73.1531C861.553 73.1741 862.802 73.2311 864.051 73.3231C865.299 73.4161 866.544 73.5451 867.784 73.7091C869.024 73.8751 870.259 74.0751 871.489 74.3121C872.717 74.5491 873.938 74.8201 875.15 75.1281C876.364 75.4351 877.567 75.7781 878.761 76.1551C879.954 76.5321 881.136 76.9441 882.305 77.3891C883.474 77.8361 884.629 78.3141 885.77 78.8271C886.912 79.3411 888.038 79.8861 889.148 80.4641C890.258 81.0431 891.35 81.6531 892.424 82.2941C893.499 82.9351 894.554 83.6081 895.59 84.3101C896.625 85.0141 897.639 85.7451 898.633 86.5081C855.397 95.2281 829.204 144.993 845.276 185.672C845.397 185.98 845.547 186.273 845.725 186.552C845.904 186.831 846.107 187.09 846.337 187.33C846.566 187.568 846.816 187.782 847.085 187.974C847.357 188.164 847.643 188.326 847.945 188.462C848.249 188.596 848.561 188.7 848.884 188.775C849.206 188.849 849.533 188.89 849.863 188.901C850.194 188.911 850.523 188.89 850.85 188.836C851.176 188.783 851.495 188.698 851.805 188.583C852.115 188.466 852.412 188.322 852.693 188.149C852.976 187.976 853.238 187.777 853.482 187.553C853.726 187.328 853.945 187.083 854.141 186.816C854.336 186.549 854.505 186.265 854.646 185.966C854.787 185.666 854.897 185.357 854.977 185.035C855.058 184.713 855.106 184.387 855.122 184.057C855.14 183.726 855.125 183.397 855.078 183.07C855.03 182.742 854.952 182.422 854.842 182.109C829.276 108.424 928.215 60.2821 970.721 125.27C971.374 126.319 971.998 127.388 972.591 128.472C973.183 129.559 973.744 130.659 974.273 131.777C974.802 132.895 975.299 134.027 975.764 135.173C976.227 136.32 976.659 137.479 977.056 138.65C977.455 139.822 977.819 141.002 978.148 142.194C978.478 143.386 978.774 144.587 979.035 145.796C979.295 147.005 979.522 148.22 979.712 149.443C979.904 150.664 980.061 151.891 980.181 153.122C980.301 154.354 980.386 155.587 980.436 156.823C980.487 158.058 980.501 159.294 980.48 160.531C980.458 161.768 980.402 163.003 980.309 164.236C980.218 165.47 980.09 166.7 979.928 167.925C979.764 169.152 979.568 170.373 979.335 171.587C979.101 172.803 978.835 174.009 978.531 175.209C978.23 176.408 977.893 177.598 977.523 178.778C977.153 179.959 976.749 181.126 976.311 182.284C975.764 183.753 975.29 185.244 974.888 186.76C974.488 188.276 974.163 189.807 973.913 191.354C973.663 192.903 973.49 194.458 973.393 196.023C973.296 197.587 973.276 199.153 973.334 200.719C973.391 202.286 973.525 203.846 973.736 205.399C973.947 206.952 974.233 208.491 974.596 210.017C974.957 211.542 975.394 213.044 975.904 214.527C976.414 216.008 976.996 217.462 977.65 218.887L917.898 245.621ZM941.125 267.442C940.757 267.605 940.384 267.752 940.003 267.88C939.621 268.008 939.236 268.117 938.843 268.207C938.451 268.296 938.056 268.366 937.658 268.418C937.259 268.468 936.858 268.499 936.457 268.511C936.055 268.521 935.653 268.514 935.253 268.486C934.852 268.457 934.453 268.41 934.057 268.343C933.66 268.275 933.268 268.189 932.881 268.082C932.493 267.976 932.111 267.85 931.737 267.707C931.361 267.564 930.993 267.402 930.634 267.223C930.274 267.042 929.925 266.845 929.585 266.631C929.245 266.416 928.916 266.187 928.598 265.94C928.28 265.693 927.976 265.431 927.685 265.154C927.393 264.879 927.115 264.588 926.854 264.283C926.59 263.98 926.342 263.663 926.111 263.335C925.879 263.006 925.664 262.668 925.466 262.318C925.266 261.968 925.085 261.61 924.923 261.243L922.085 254.932L981.842 228.197L983.711 232.349C983.899 232.679 984.074 233.017 984.234 233.361C984.394 233.705 984.539 234.056 984.669 234.412C984.801 234.77 984.915 235.131 985.016 235.496C985.116 235.863 985.201 236.233 985.271 236.607C985.34 236.981 985.394 237.356 985.431 237.733C985.469 238.112 985.491 238.49 985.497 238.871C985.503 239.25 985.492 239.63 985.467 240.008C985.442 240.387 985.4 240.765 985.342 241.141C985.285 241.516 985.213 241.888 985.122 242.258C985.034 242.627 984.93 242.992 984.811 243.352C984.692 243.713 984.558 244.068 984.409 244.418C984.26 244.767 984.096 245.109 983.919 245.445C983.74 245.781 983.549 246.109 983.344 246.427C983.138 246.747 982.92 247.058 982.689 247.36C982.458 247.66 982.213 247.951 981.959 248.232C981.703 248.514 981.435 248.784 981.157 249.042C982.914 249.265 941.487 267.074 941.125 267.442ZM983.515 269.067C982.8 270.255 981.919 271.302 980.872 272.21C979.825 273.118 978.663 273.843 977.387 274.384L959.776 282.262C954.281 284.717 949.073 283.344 947.839 280.594L945.988 276.451L982.244 260.231L984.096 264.376C984.226 264.763 984.311 265.16 984.352 265.568C984.393 265.976 984.389 266.381 984.339 266.787C984.288 267.194 984.194 267.589 984.055 267.974C983.916 268.358 983.736 268.723 983.515 269.067Z" fill="black"/>
<path d="M903.951 128.784C903.913 128.372 903.847 127.965 903.754 127.563C903.66 127.159 903.54 126.765 903.393 126.379C903.244 125.992 903.071 125.619 902.871 125.256C902.672 124.893 902.45 124.546 902.203 124.215C901.956 123.883 901.687 123.57 901.398 123.275C901.108 122.98 900.798 122.707 900.472 122.455C900.143 122.203 899.801 121.974 899.441 121.769C899.083 121.563 898.711 121.383 898.329 121.229C897.944 121.076 897.553 120.948 897.151 120.847C896.75 120.749 896.344 120.676 895.933 120.632C895.523 120.587 895.11 120.572 894.697 120.583C894.284 120.595 893.874 120.636 893.465 120.704C893.057 120.773 892.656 120.869 892.262 120.993C891.868 121.117 891.483 121.267 891.11 121.444C890.736 121.621 890.375 121.822 890.03 122.048C889.684 122.274 889.355 122.523 889.042 122.794L883.85 127.441C878.635 126.181 872.141 123.559 868.09 128.758C863.703 133.675 867.415 139.571 869.582 144.497C866.772 149.071 862.272 154.433 865.959 159.893C869.277 165.588 876.033 163.88 881.39 163.337C884.871 167.424 888.57 173.357 894.912 171.538C901.353 170.143 901.817 163.184 902.958 157.923L909.407 155.272C909.787 155.109 910.154 154.922 910.51 154.709C910.864 154.496 911.204 154.26 911.525 154.002C911.848 153.742 912.15 153.461 912.434 153.16C912.718 152.859 912.98 152.539 913.218 152.203C913.459 151.865 913.674 151.513 913.865 151.146C914.056 150.779 914.222 150.401 914.361 150.013C914.5 149.622 914.613 149.225 914.696 148.82C914.781 148.416 914.838 148.007 914.865 147.594C914.894 147.181 914.894 146.768 914.865 146.356C914.837 145.944 914.779 145.534 914.696 145.129C914.61 144.724 914.498 144.327 914.358 143.938C914.219 143.549 914.053 143.171 913.862 142.804C913.67 142.437 913.454 142.085 913.214 141.749C912.974 141.412 912.712 141.092 912.428 140.792C912.145 140.491 911.841 140.211 911.519 139.951C911.196 139.693 910.858 139.457 910.503 139.244L904.478 135.738L903.951 128.784ZM898.462 148.732C893.734 150.382 892.833 155.82 892.041 160.106L888.75 156.227C885.721 152.231 880.272 153.054 875.948 153.631C878.353 149.979 881.458 145.443 879.187 140.977L877.134 136.319L882.075 137.518C886.936 138.956 890.753 135.123 893.96 132.094C894.175 136.511 894.278 141.898 898.772 144.234L903.172 146.794L898.462 148.732Z" fill="black"/>
<path d="M890.729 57.3911C890.778 57.7201 890.857 58.0381 890.967 58.3521C891.079 58.6641 891.218 58.9621 891.388 59.2471C891.556 59.5321 891.751 59.7971 891.971 60.0441C892.191 60.2911 892.434 60.5161 892.698 60.7161C892.962 60.9151 893.243 61.0881 893.541 61.2331C893.838 61.3791 894.148 61.4941 894.467 61.5791C894.788 61.6641 895.113 61.7171 895.443 61.7391C895.774 61.7601 896.103 61.7511 896.432 61.7081C896.76 61.6661 897.081 61.5921 897.395 61.4871C897.71 61.3821 898.011 61.2481 898.299 61.0851C898.588 60.9211 898.857 60.7311 899.108 60.5161C899.36 60.3001 899.587 60.0611 899.792 59.8001C899.997 59.5411 900.174 59.2631 900.326 58.9671C900.477 58.6731 900.597 58.3661 900.688 58.0471C900.78 57.7291 900.839 57.4051 900.867 57.0751C900.896 56.7441 900.891 56.4161 900.854 56.0861L897.906 33.2041C897.86 32.875 897.781 32.5536 897.671 32.2405C897.561 31.9274 897.422 31.6276 897.254 31.3418C897.084 31.0554 896.89 30.7891 896.67 30.5409C896.449 30.2921 896.206 30.0677 895.942 29.8662C895.678 29.666 895.397 29.4921 895.099 29.3473C894.8 29.2006 894.491 29.0842 894.17 28.9989C893.85 28.9136 893.523 28.8601 893.192 28.8376C892.861 28.8165 892.53 28.8265 892.201 28.8682C891.872 28.9113 891.55 28.9854 891.235 29.0896C890.92 29.1956 890.619 29.3302 890.33 29.4942C890.041 29.6581 889.772 29.8495 889.52 30.065C889.269 30.2819 889.041 30.5218 888.836 30.7828C888.63 31.0439 888.453 31.3231 888.302 31.619C888.152 31.915 888.032 32.2223 887.942 32.5428C887.851 32.8615 887.792 33.1861 887.765 33.518C887.737 33.8486 887.743 34.1792 887.781 34.5085L890.729 57.3911Z" fill="black"/>
<path d="M938.743 77.957C938.962 78.21 939.204 78.44 939.469 78.645C939.733 78.851 940.015 79.029 940.315 79.179C940.615 79.329 940.925 79.449 941.249 79.537C941.572 79.626 941.9 79.684 942.235 79.708C942.569 79.731 942.902 79.722 943.235 79.682C943.567 79.64 943.893 79.566 944.21 79.461C944.529 79.357 944.834 79.22 945.125 79.056C945.417 78.89 945.689 78.698 945.943 78.479L963.395 63.387C963.647 63.167 963.877 62.926 964.084 62.661C964.289 62.397 964.468 62.115 964.618 61.815C964.768 61.515 964.889 61.204 964.976 60.881C965.066 60.557 965.123 60.228 965.147 59.895C965.171 59.56 965.162 59.227 965.121 58.894C965.079 58.561 965.005 58.236 964.9 57.918C964.795 57.599 964.66 57.295 964.494 57.003C964.327 56.712 964.136 56.439 963.916 56.186C963.697 55.932 963.455 55.702 963.191 55.497C962.927 55.291 962.645 55.113 962.345 54.962C962.045 54.812 961.734 54.693 961.411 54.603C961.088 54.514 960.759 54.458 960.425 54.433C960.09 54.409 959.757 54.418 959.424 54.46C959.091 54.5 958.766 54.574 958.448 54.68C958.13 54.785 957.826 54.922 957.533 55.087C957.242 55.252 956.97 55.446 956.716 55.665L939.265 70.755C939.011 70.975 938.782 71.217 938.575 71.482C938.369 71.746 938.191 72.028 938.042 72.328C937.891 72.628 937.771 72.939 937.681 73.262C937.594 73.585 937.536 73.914 937.512 74.248C937.488 74.583 937.496 74.916 937.538 75.249C937.58 75.582 937.652 75.907 937.759 76.225C937.864 76.543 937.999 76.849 938.165 77.14C938.332 77.431 938.523 77.704 938.743 77.957Z" fill="black"/>
<path d="M921.814 58.8281C922.128 58.9481 922.449 59.0351 922.779 59.0911C923.11 59.1481 923.443 59.1711 923.778 59.1631C924.113 59.1531 924.444 59.1101 924.77 59.0361C925.098 58.9621 925.414 58.8561 925.72 58.7191C926.027 58.5821 926.316 58.4171 926.589 58.2221C926.862 58.0291 927.115 57.8101 927.344 57.5671C927.575 57.3231 927.78 57.0591 927.958 56.7751C928.136 56.4911 928.286 56.1931 928.405 55.8801L935.872 36.3284C935.992 36.016 936.079 35.6931 936.136 35.3628C936.192 35.0326 936.215 34.7005 936.205 34.3651C936.197 34.0302 936.155 33.698 936.08 33.3717C936.006 33.0446 935.901 32.7285 935.764 32.422C935.626 32.1168 935.461 31.8261 935.266 31.5533C935.073 31.2797 934.855 31.0274 934.611 30.7979C934.368 30.567 934.103 30.3622 933.82 30.1841C933.536 30.006 933.238 29.8566 932.924 29.7368C932.612 29.6175 932.289 29.5298 931.959 29.4734C931.628 29.417 931.296 29.394 930.961 29.4038C930.626 29.4123 930.295 29.4549 929.968 29.5297C929.641 29.6031 929.324 29.7099 929.019 29.8462C928.713 29.9833 928.423 30.1486 928.149 30.343C927.876 30.536 927.624 30.7561 927.393 30.9995C927.164 31.2435 926.959 31.5064 926.78 31.7897C926.602 32.0734 926.453 32.3731 926.334 32.6855L918.867 52.2371C918.747 52.5511 918.659 52.8721 918.602 53.2021C918.547 53.5331 918.524 53.8661 918.532 54.2011C918.542 54.5361 918.583 54.8671 918.658 55.1931C918.733 55.5211 918.839 55.8371 918.976 56.1431C919.112 56.4491 919.277 56.7391 919.471 57.0131C919.666 57.2861 919.884 57.5381 920.128 57.7691C920.372 57.9981 920.635 58.2021 920.918 58.3811C921.202 58.5591 921.501 58.7091 921.814 58.8281Z" fill="black"/>
</g>
<defs>
<clipPath id="clip0_463_2763">
<rect width="1199" height="956" fill="white"/>
</clipPath>
</defs>
</svg>
